<?xml version="1.0" encoding="utf-8" standalone="no"?>
<!DOCTYPE svg PUBLIC "-//W3C//DTD SVG 1.1//EN"
  "http://www.w3.org/Graphics/SVG/1.1/DTD/svg11.dtd">
<svg xmlns:xlink="http://www.w3.org/1999/xlink" width="300.558594pt" height="636.48pt" viewBox="0 0 300.558594 636.48" xmlns="http://www.w3.org/2000/svg" version="1.1">
 <metadata>
  <rdf:RDF xmlns:dc="http://purl.org/dc/elements/1.1/" xmlns:cc="http://creativecommons.org/ns#" xmlns:rdf="http://www.w3.org/1999/02/22-rdf-syntax-ns#">
   <cc:Work>
    <dc:type rdf:resource="http://purl.org/dc/dcmitype/StillImage"/>
    <dc:date>2025-04-06T03:52:45.920774</dc:date>
    <dc:format>image/svg+xml</dc:format>
    <dc:creator>
     <cc:Agent>
      <dc:title>Matplotlib v3.10.1, https://matplotlib.org/</dc:title>
     </cc:Agent>
    </dc:creator>
   </cc:Work>
  </rdf:RDF>
 </metadata>
 <defs>
  <style type="text/css">*{stroke-linejoin: round; stroke-linecap: butt}</style>
 </defs>
 <g id="figure_1">
  <g id="patch_1">
   <path d="M 0 636.48 
L 300.558594 636.48 
L 300.558594 0 
L 0 0 
z
" style="fill: #ffffff"/>
  </g>
  <g id="axes_1">
   <g id="patch_2">
    <path d="M 270.496094 580.68 
C 270.496094 554.910844 260.248418 530.170766 242.026873 511.949221 
C 223.805328 493.727676 199.06525 483.48 173.296094 483.48 
C 147.526938 483.48 122.78686 493.727676 104.565315 511.949221 
C 86.34377 530.170766 76.096094 554.910844 76.096094 580.68 
L 173.296094 580.68 
C 173.296094 580.68 173.296094 580.68 173.296094 580.68 
C 173.296094 580.68 173.296094 580.68 173.296094 580.68 
C 173.296094 580.68 173.296094 580.68 173.296094 580.68 
C 173.296094 580.68 173.296094 580.68 173.296094 580.68 
z
" style="fill: #ffffff"/>
   </g>
   <g id="matplotlib.axis_1">
    <g id="xtick_1">
     <g id="line2d_1">
      <path d="M 173.296094 580.68 
L 76.096094 580.68 
" clip-path="url(#pbee6a50348)" style="fill: none; stroke: #b0b0b0; stroke-width: 0.8; stroke-linecap: square"/>
     </g>
     <g id="text_1">
      <!-- -90° -->
      <g transform="translate(51.429688 583.439375) scale(0.1 -0.1)">
       <defs>
        <path id="DejaVuSans-2d" d="M 313 2009 
L 1997 2009 
L 1997 1497 
L 313 1497 
L 313 2009 
z
" transform="scale(0.015625)"/>
        <path id="DejaVuSans-39" d="M 703 97 
L 703 672 
Q 941 559 1184 500 
Q 1428 441 1663 441 
Q 2288 441 2617 861 
Q 2947 1281 2994 2138 
Q 2813 1869 2534 1725 
Q 2256 1581 1919 1581 
Q 1219 1581 811 2004 
Q 403 2428 403 3163 
Q 403 3881 828 4315 
Q 1253 4750 1959 4750 
Q 2769 4750 3195 4129 
Q 3622 3509 3622 2328 
Q 3622 1225 3098 567 
Q 2575 -91 1691 -91 
Q 1453 -91 1209 -44 
Q 966 3 703 97 
z
M 1959 2075 
Q 2384 2075 2632 2365 
Q 2881 2656 2881 3163 
Q 2881 3666 2632 3958 
Q 2384 4250 1959 4250 
Q 1534 4250 1286 3958 
Q 1038 3666 1038 3163 
Q 1038 2656 1286 2365 
Q 1534 2075 1959 2075 
z
" transform="scale(0.015625)"/>
        <path id="DejaVuSans-30" d="M 2034 4250 
Q 1547 4250 1301 3770 
Q 1056 3291 1056 2328 
Q 1056 1369 1301 889 
Q 1547 409 2034 409 
Q 2525 409 2770 889 
Q 3016 1369 3016 2328 
Q 3016 3291 2770 3770 
Q 2525 4250 2034 4250 
z
M 2034 4750 
Q 2819 4750 3233 4129 
Q 3647 3509 3647 2328 
Q 3647 1150 3233 529 
Q 2819 -91 2034 -91 
Q 1250 -91 836 529 
Q 422 1150 422 2328 
Q 422 3509 836 4129 
Q 1250 4750 2034 4750 
z
" transform="scale(0.015625)"/>
        <path id="DejaVuSans-b0" d="M 1600 4347 
Q 1350 4347 1178 4173 
Q 1006 4000 1006 3750 
Q 1006 3503 1178 3333 
Q 1350 3163 1600 3163 
Q 1850 3163 2022 3333 
Q 2194 3503 2194 3750 
Q 2194 3997 2020 4172 
Q 1847 4347 1600 4347 
z
M 1600 4750 
Q 1800 4750 1984 4673 
Q 2169 4597 2303 4453 
Q 2447 4313 2519 4134 
Q 2591 3956 2591 3750 
Q 2591 3338 2302 3052 
Q 2013 2766 1594 2766 
Q 1172 2766 890 3047 
Q 609 3328 609 3750 
Q 609 4169 896 4459 
Q 1184 4750 1600 4750 
z
" transform="scale(0.015625)"/>
       </defs>
       <use xlink:href="#DejaVuSans-2d"/>
       <use xlink:href="#DejaVuSans-39" transform="translate(36.083984 0)"/>
       <use xlink:href="#DejaVuSans-30" transform="translate(99.707031 0)"/>
       <use xlink:href="#DejaVuSans-b0" transform="translate(163.330078 0)"/>
      </g>
     </g>
    </g>
    <g id="xtick_2">
     <g id="line2d_2">
      <path d="M 173.296094 580.68 
L 89.118425 532.08 
" clip-path="url(#pbee6a50348)" style="fill: none; stroke: #b0b0b0; stroke-width: 0.8; stroke-linecap: square"/>
     </g>
     <g id="text_2">
      <!-- -60° -->
      <g transform="translate(66.327663 527.839375) scale(0.1 -0.1)">
       <defs>
        <path id="DejaVuSans-36" d="M 2113 2584 
Q 1688 2584 1439 2293 
Q 1191 2003 1191 1497 
Q 1191 994 1439 701 
Q 1688 409 2113 409 
Q 2538 409 2786 701 
Q 3034 994 3034 1497 
Q 3034 2003 2786 2293 
Q 2538 2584 2113 2584 
z
M 3366 4563 
L 3366 3988 
Q 3128 4100 2886 4159 
Q 2644 4219 2406 4219 
Q 1781 4219 1451 3797 
Q 1122 3375 1075 2522 
Q 1259 2794 1537 2939 
Q 1816 3084 2150 3084 
Q 2853 3084 3261 2657 
Q 3669 2231 3669 1497 
Q 3669 778 3244 343 
Q 2819 -91 2113 -91 
Q 1303 -91 875 529 
Q 447 1150 447 2328 
Q 447 3434 972 4092 
Q 1497 4750 2381 4750 
Q 2619 4750 2861 4703 
Q 3103 4656 3366 4563 
z
" transform="scale(0.015625)"/>
       </defs>
       <use xlink:href="#DejaVuSans-2d"/>
       <use xlink:href="#DejaVuSans-36" transform="translate(36.083984 0)"/>
       <use xlink:href="#DejaVuSans-30" transform="translate(99.707031 0)"/>
       <use xlink:href="#DejaVuSans-b0" transform="translate(163.330078 0)"/>
      </g>
     </g>
    </g>
    <g id="xtick_3">
     <g id="line2d_3">
      <path d="M 173.296094 580.68 
L 124.696094 496.502331 
" clip-path="url(#pbee6a50348)" style="fill: none; stroke: #b0b0b0; stroke-width: 0.8; stroke-linecap: square"/>
     </g>
     <g id="text_3">
      <!-- -30° -->
      <g transform="translate(107.029688 487.13735) scale(0.1 -0.1)">
       <defs>
        <path id="DejaVuSans-33" d="M 2597 2516 
Q 3050 2419 3304 2112 
Q 3559 1806 3559 1356 
Q 3559 666 3084 287 
Q 2609 -91 1734 -91 
Q 1441 -91 1130 -33 
Q 819 25 488 141 
L 488 750 
Q 750 597 1062 519 
Q 1375 441 1716 441 
Q 2309 441 2620 675 
Q 2931 909 2931 1356 
Q 2931 1769 2642 2001 
Q 2353 2234 1838 2234 
L 1294 2234 
L 1294 2753 
L 1863 2753 
Q 2328 2753 2575 2939 
Q 2822 3125 2822 3475 
Q 2822 3834 2567 4026 
Q 2313 4219 1838 4219 
Q 1578 4219 1281 4162 
Q 984 4106 628 3988 
L 628 4550 
Q 988 4650 1302 4700 
Q 1616 4750 1894 4750 
Q 2613 4750 3031 4423 
Q 3450 4097 3450 3541 
Q 3450 3153 3228 2886 
Q 3006 2619 2597 2516 
z
" transform="scale(0.015625)"/>
       </defs>
       <use xlink:href="#DejaVuSans-2d"/>
       <use xlink:href="#DejaVuSans-33" transform="translate(36.083984 0)"/>
       <use xlink:href="#DejaVuSans-30" transform="translate(99.707031 0)"/>
       <use xlink:href="#DejaVuSans-b0" transform="translate(163.330078 0)"/>
      </g>
     </g>
    </g>
    <g id="xtick_4">
     <g id="line2d_4">
      <path d="M 173.296094 580.68 
L 173.296094 483.48 
" clip-path="url(#pbee6a50348)" style="fill: none; stroke: #b0b0b0; stroke-width: 0.8; stroke-linecap: square"/>
     </g>
     <g id="text_4">
      <!-- 0° -->
      <g transform="translate(167.614844 472.239375) scale(0.1 -0.1)">
       <use xlink:href="#DejaVuSans-30"/>
       <use xlink:href="#DejaVuSans-b0" transform="translate(63.623047 0)"/>
      </g>
     </g>
    </g>
    <g id="xtick_5">
     <g id="line2d_5">
      <path d="M 173.296094 580.68 
L 221.896094 496.502331 
" clip-path="url(#pbee6a50348)" style="fill: none; stroke: #b0b0b0; stroke-width: 0.8; stroke-linecap: square"/>
     </g>
     <g id="text_5">
      <!-- 30° -->
      <g transform="translate(220.033594 487.13735) scale(0.1 -0.1)">
       <use xlink:href="#DejaVuSans-33"/>
       <use xlink:href="#DejaVuSans-30" transform="translate(63.623047 0)"/>
       <use xlink:href="#DejaVuSans-b0" transform="translate(127.246094 0)"/>
      </g>
     </g>
    </g>
    <g id="xtick_6">
     <g id="line2d_6">
      <path d="M 173.296094 580.68 
L 257.473763 532.08 
" clip-path="url(#pbee6a50348)" style="fill: none; stroke: #b0b0b0; stroke-width: 0.8; stroke-linecap: square"/>
     </g>
     <g id="text_6">
      <!-- 60° -->
      <g transform="translate(260.735619 527.839375) scale(0.1 -0.1)">
       <use xlink:href="#DejaVuSans-36"/>
       <use xlink:href="#DejaVuSans-30" transform="translate(63.623047 0)"/>
       <use xlink:href="#DejaVuSans-b0" transform="translate(127.246094 0)"/>
      </g>
     </g>
    </g>
    <g id="xtick_7">
     <g id="line2d_7">
      <path d="M 173.296094 580.68 
L 270.496094 580.68 
" clip-path="url(#pbee6a50348)" style="fill: none; stroke: #b0b0b0; stroke-width: 0.8; stroke-linecap: square"/>
     </g>
     <g id="text_7">
      <!-- 90° -->
      <g transform="translate(275.633594 583.439375) scale(0.1 -0.1)">
       <use xlink:href="#DejaVuSans-39"/>
       <use xlink:href="#DejaVuSans-30" transform="translate(63.623047 0)"/>
       <use xlink:href="#DejaVuSans-b0" transform="translate(127.246094 0)"/>
      </g>
     </g>
    </g>
   </g>
   <g id="matplotlib.axis_2">
    <g id="ytick_1">
     <g id="line2d_8">
      <path d="M 164.003464 580.68 
C 164.003464 578.216386 164.983174 575.851156 166.725212 574.109118 
C 168.46725 572.36708 170.83248 571.38737 173.296094 571.38737 
C 175.759707 571.38737 178.124938 572.36708 179.866975 574.109118 
C 181.609013 575.851156 182.588724 578.216386 182.588724 580.68 
" clip-path="url(#pbee6a50348)" style="fill: none; stroke: #b0b0b0; stroke-width: 0.8; stroke-linecap: square"/>
     </g>
     <g id="text_8">
      <!-- −10 -->
      <g transform="translate(153.45112 595.278437) scale(0.1 -0.1)">
       <defs>
        <path id="DejaVuSans-2212" d="M 678 2272 
L 4684 2272 
L 4684 1741 
L 678 1741 
L 678 2272 
z
" transform="scale(0.015625)"/>
        <path id="DejaVuSans-31" d="M 794 531 
L 1825 531 
L 1825 4091 
L 703 3866 
L 703 4441 
L 1819 4666 
L 2450 4666 
L 2450 531 
L 3481 531 
L 3481 0 
L 794 0 
L 794 531 
z
" transform="scale(0.015625)"/>
       </defs>
       <use xlink:href="#DejaVuSans-2212"/>
       <use xlink:href="#DejaVuSans-31" transform="translate(83.789062 0)"/>
       <use xlink:href="#DejaVuSans-30" transform="translate(147.412109 0)"/>
      </g>
     </g>
    </g>
    <g id="ytick_2">
     <g id="line2d_9">
      <path d="M 148.960367 580.68 
C 148.960367 574.228239 151.526052 568.034126 156.088136 563.472042 
C 160.65022 558.909959 166.844333 556.344273 173.296094 556.344273 
C 179.747855 556.344273 185.941968 558.909959 190.504051 563.472042 
C 195.066135 568.034126 197.631821 574.228239 197.631821 580.68 
" clip-path="url(#pbee6a50348)" style="fill: none; stroke: #b0b0b0; stroke-width: 0.8; stroke-linecap: square"/>
     </g>
     <g id="text_9">
      <!-- −8 -->
      <g transform="translate(141.589273 595.278437) scale(0.1 -0.1)">
       <defs>
        <path id="DejaVuSans-38" d="M 2034 2216 
Q 1584 2216 1326 1975 
Q 1069 1734 1069 1313 
Q 1069 891 1326 650 
Q 1584 409 2034 409 
Q 2484 409 2743 651 
Q 3003 894 3003 1313 
Q 3003 1734 2745 1975 
Q 2488 2216 2034 2216 
z
M 1403 2484 
Q 997 2584 770 2862 
Q 544 3141 544 3541 
Q 544 4100 942 4425 
Q 1341 4750 2034 4750 
Q 2731 4750 3128 4425 
Q 3525 4100 3525 3541 
Q 3525 3141 3298 2862 
Q 3072 2584 2669 2484 
Q 3125 2378 3379 2068 
Q 3634 1759 3634 1313 
Q 3634 634 3220 271 
Q 2806 -91 2034 -91 
Q 1263 -91 848 271 
Q 434 634 434 1313 
Q 434 1759 690 2068 
Q 947 2378 1403 2484 
z
M 1172 3481 
Q 1172 3119 1398 2916 
Q 1625 2713 2034 2713 
Q 2441 2713 2670 2916 
Q 2900 3119 2900 3481 
Q 2900 3844 2670 4047 
Q 2441 4250 2034 4250 
Q 1625 4250 1398 4047 
Q 1172 3844 1172 3481 
z
" transform="scale(0.015625)"/>
       </defs>
       <use xlink:href="#DejaVuSans-2212"/>
       <use xlink:href="#DejaVuSans-38" transform="translate(83.789062 0)"/>
      </g>
     </g>
    </g>
    <g id="ytick_3">
     <g id="line2d_10">
      <path d="M 133.91727 580.68 
C 133.91727 570.240092 138.068931 560.217096 145.45106 552.834967 
C 152.83319 545.452837 162.856186 541.301176 173.296094 541.301176 
C 183.736002 541.301176 193.758997 545.452837 201.141127 552.834967 
C 208.523257 560.217096 212.674918 570.240092 212.674918 580.68 
" clip-path="url(#pbee6a50348)" style="fill: none; stroke: #b0b0b0; stroke-width: 0.8; stroke-linecap: square"/>
     </g>
     <g id="text_10">
      <!-- −6 -->
      <g transform="translate(126.546176 595.278437) scale(0.1 -0.1)">
       <use xlink:href="#DejaVuSans-2212"/>
       <use xlink:href="#DejaVuSans-36" transform="translate(83.789062 0)"/>
      </g>
     </g>
    </g>
    <g id="ytick_4">
     <g id="line2d_11">
      <path d="M 118.874173 580.68 
C 118.874173 566.251945 124.611809 552.400066 134.813984 542.197891 
C 145.01616 531.995715 158.868039 526.258079 173.296094 526.258079 
C 187.724149 526.258079 201.576027 531.995715 211.778203 542.197891 
C 221.980379 552.400066 227.718015 566.251945 227.718015 580.68 
" clip-path="url(#pbee6a50348)" style="fill: none; stroke: #b0b0b0; stroke-width: 0.8; stroke-linecap: square"/>
     </g>
     <g id="text_11">
      <!-- −4 -->
      <g transform="translate(111.503079 595.278437) scale(0.1 -0.1)">
       <defs>
        <path id="DejaVuSans-34" d="M 2419 4116 
L 825 1625 
L 2419 1625 
L 2419 4116 
z
M 2253 4666 
L 3047 4666 
L 3047 1625 
L 3713 1625 
L 3713 1100 
L 3047 1100 
L 3047 0 
L 2419 0 
L 2419 1100 
L 313 1100 
L 313 1709 
L 2253 4666 
z
" transform="scale(0.015625)"/>
       </defs>
       <use xlink:href="#DejaVuSans-2212"/>
       <use xlink:href="#DejaVuSans-34" transform="translate(83.789062 0)"/>
      </g>
     </g>
    </g>
    <g id="ytick_5">
     <g id="line2d_12">
      <path d="M 103.831076 580.68 
C 103.831076 562.263798 111.154687 544.583036 124.176909 531.560815 
C 137.19913 518.538593 154.879891 511.214982 173.296094 511.214982 
C 191.712296 511.214982 209.393057 518.538593 222.415279 531.560815 
C 235.437501 544.583036 242.761112 562.263798 242.761112 580.68 
" clip-path="url(#pbee6a50348)" style="fill: none; stroke: #b0b0b0; stroke-width: 0.8; stroke-linecap: square"/>
     </g>
     <g id="text_12">
      <!-- −2 -->
      <g transform="translate(96.459982 595.278437) scale(0.1 -0.1)">
       <defs>
        <path id="DejaVuSans-32" d="M 1228 531 
L 3431 531 
L 3431 0 
L 469 0 
L 469 531 
Q 828 903 1448 1529 
Q 2069 2156 2228 2338 
Q 2531 2678 2651 2914 
Q 2772 3150 2772 3378 
Q 2772 3750 2511 3984 
Q 2250 4219 1831 4219 
Q 1534 4219 1204 4116 
Q 875 4013 500 3803 
L 500 4441 
Q 881 4594 1212 4672 
Q 1544 4750 1819 4750 
Q 2544 4750 2975 4387 
Q 3406 4025 3406 3419 
Q 3406 3131 3298 2873 
Q 3191 2616 2906 2266 
Q 2828 2175 2409 1742 
Q 1991 1309 1228 531 
z
" transform="scale(0.015625)"/>
       </defs>
       <use xlink:href="#DejaVuSans-2212"/>
       <use xlink:href="#DejaVuSans-32" transform="translate(83.789062 0)"/>
      </g>
     </g>
    </g>
    <g id="ytick_6">
     <g id="line2d_13">
      <path d="M 88.787979 580.68 
C 88.787979 558.27565 97.697565 536.766007 113.539833 520.923739 
C 129.3821 505.081471 150.891744 496.171885 173.296094 496.171885 
C 195.700443 496.171885 217.210087 505.081471 233.052355 520.923739 
C 248.894622 536.766007 257.804209 558.27565 257.804209 580.68 
" clip-path="url(#pbee6a50348)" style="fill: none; stroke: #b0b0b0; stroke-width: 0.8; stroke-linecap: square"/>
     </g>
     <g id="text_13">
      <!-- 0 -->
      <g transform="translate(85.606729 595.278437) scale(0.1 -0.1)">
       <use xlink:href="#DejaVuSans-30"/>
      </g>
     </g>
    </g>
    <g id="text_14">
     <!-- Bartlett -->
     <g transform="translate(7.2 530.000312) scale(0.1 -0.1)">
      <defs>
       <path id="DejaVuSans-42" d="M 1259 2228 
L 1259 519 
L 2272 519 
Q 2781 519 3026 730 
Q 3272 941 3272 1375 
Q 3272 1813 3026 2020 
Q 2781 2228 2272 2228 
L 1259 2228 
z
M 1259 4147 
L 1259 2741 
L 2194 2741 
Q 2656 2741 2882 2914 
Q 3109 3088 3109 3444 
Q 3109 3797 2882 3972 
Q 2656 4147 2194 4147 
L 1259 4147 
z
M 628 4666 
L 2241 4666 
Q 2963 4666 3353 4366 
Q 3744 4066 3744 3513 
Q 3744 3084 3544 2831 
Q 3344 2578 2956 2516 
Q 3422 2416 3680 2098 
Q 3938 1781 3938 1306 
Q 3938 681 3513 340 
Q 3088 0 2303 0 
L 628 0 
L 628 4666 
z
" transform="scale(0.015625)"/>
       <path id="DejaVuSans-61" d="M 2194 1759 
Q 1497 1759 1228 1600 
Q 959 1441 959 1056 
Q 959 750 1161 570 
Q 1363 391 1709 391 
Q 2188 391 2477 730 
Q 2766 1069 2766 1631 
L 2766 1759 
L 2194 1759 
z
M 3341 1997 
L 3341 0 
L 2766 0 
L 2766 531 
Q 2569 213 2275 61 
Q 1981 -91 1556 -91 
Q 1019 -91 701 211 
Q 384 513 384 1019 
Q 384 1609 779 1909 
Q 1175 2209 1959 2209 
L 2766 2209 
L 2766 2266 
Q 2766 2663 2505 2880 
Q 2244 3097 1772 3097 
Q 1472 3097 1187 3025 
Q 903 2953 641 2809 
L 641 3341 
Q 956 3463 1253 3523 
Q 1550 3584 1831 3584 
Q 2591 3584 2966 3190 
Q 3341 2797 3341 1997 
z
" transform="scale(0.015625)"/>
       <path id="DejaVuSans-72" d="M 2631 2963 
Q 2534 3019 2420 3045 
Q 2306 3072 2169 3072 
Q 1681 3072 1420 2755 
Q 1159 2438 1159 1844 
L 1159 0 
L 581 0 
L 581 3500 
L 1159 3500 
L 1159 2956 
Q 1341 3275 1631 3429 
Q 1922 3584 2338 3584 
Q 2397 3584 2469 3576 
Q 2541 3569 2628 3553 
L 2631 2963 
z
" transform="scale(0.015625)"/>
       <path id="DejaVuSans-74" d="M 1172 4494 
L 1172 3500 
L 2356 3500 
L 2356 3053 
L 1172 3053 
L 1172 1153 
Q 1172 725 1289 603 
Q 1406 481 1766 481 
L 2356 481 
L 2356 0 
L 1766 0 
Q 1100 0 847 248 
Q 594 497 594 1153 
L 594 3053 
L 172 3053 
L 172 3500 
L 594 3500 
L 594 4494 
L 1172 4494 
z
" transform="scale(0.015625)"/>
       <path id="DejaVuSans-6c" d="M 603 4863 
L 1178 4863 
L 1178 0 
L 603 0 
L 603 4863 
z
" transform="scale(0.015625)"/>
       <path id="DejaVuSans-65" d="M 3597 1894 
L 3597 1613 
L 953 1613 
Q 991 1019 1311 708 
Q 1631 397 2203 397 
Q 2534 397 2845 478 
Q 3156 559 3463 722 
L 3463 178 
Q 3153 47 2828 -22 
Q 2503 -91 2169 -91 
Q 1331 -91 842 396 
Q 353 884 353 1716 
Q 353 2575 817 3079 
Q 1281 3584 2069 3584 
Q 2775 3584 3186 3129 
Q 3597 2675 3597 1894 
z
M 3022 2063 
Q 3016 2534 2758 2815 
Q 2500 3097 2075 3097 
Q 1594 3097 1305 2825 
Q 1016 2553 972 2059 
L 3022 2063 
z
" transform="scale(0.015625)"/>
      </defs>
      <use xlink:href="#DejaVuSans-42"/>
      <use xlink:href="#DejaVuSans-61" transform="translate(68.603516 0)"/>
      <use xlink:href="#DejaVuSans-72" transform="translate(129.882812 0)"/>
      <use xlink:href="#DejaVuSans-74" transform="translate(170.996094 0)"/>
      <use xlink:href="#DejaVuSans-6c" transform="translate(210.205078 0)"/>
      <use xlink:href="#DejaVuSans-65" transform="translate(237.988281 0)"/>
      <use xlink:href="#DejaVuSans-74" transform="translate(299.511719 0)"/>
      <use xlink:href="#DejaVuSans-74" transform="translate(338.720703 0)"/>
     </g>
    </g>
   </g>
   <g id="line2d_14">
    <path d="M 173.296094 575.478163 
L 173.746879 568.740189 
L 174.288172 563.172464 
L 175.102696 556.788621 
L 176.190555 550.090602 
L 177.528068 543.458393 
L 179.080464 537.140177 
L 180.809955 531.28063 
L 182.679729 525.954468 
L 184.655495 521.192916 
L 186.705822 517.001622 
L 188.801965 513.371854 
L 190.917533 510.287248 
L 193.028127 507.727732 
L 195.111021 505.671775 
L 197.144886 504.097621 
L 198.463565 503.30529 
L 199.745761 502.711449 
L 200.985936 502.310115 
L 202.178709 502.095475 
L 203.318852 502.061878 
L 204.401268 502.203832 
L 205.420991 502.51599 
L 206.373172 502.993135 
L 207.253075 503.630163 
L 208.056077 504.422066 
L 208.777664 505.363913 
L 209.413432 506.450828 
L 210.196824 508.342615 
L 210.763548 510.533586 
L 211.100358 513.007253 
L 211.194852 515.746725 
L 211.035685 518.734412 
L 210.612882 521.951658 
L 209.918258 525.378289 
L 208.94604 528.992029 
L 207.693679 532.767785 
L 206.16296 536.676754 
L 204.361446 540.685355 
L 202.304302 544.754013 
L 200.01647 548.835896 
L 197.535074 552.875807 
L 194.911662 556.80969 
L 191.311623 561.764213 
L 187.781576 566.217276 
L 183.817758 570.815676 
L 179.808148 575.092453 
L 177.780903 577.297136 
L 177.844602 577.381867 
L 178.346082 577.255224 
L 180.376291 576.680828 
L 181.39792 576.627049 
L 182.090622 576.820626 
L 182.58558 577.215957 
L 183.642036 578.586104 
L 184.406663 579.716752 
L 184.620073 580.412868 
L 184.602886 581.053483 
L 184.356677 581.744135 
L 183.805816 582.567244 
L 182.189584 584.48315 
L 181.647596 584.694941 
L 180.864353 584.737759 
L 179.835772 584.566177 
L 177.784419 583.999548 
L 177.793847 584.094873 
L 178.197415 584.599492 
L 186.522627 593.638898 
L 189.967617 597.857176 
L 193.567136 602.645439 
L 197.10608 607.819323 
L 199.615143 611.846251 
L 201.938177 615.925208 
L 204.035801 619.999538 
L 205.881208 624.021078 
L 207.457765 627.94913 
L 208.75678 631.749203 
L 209.775613 635.391777 
L 210.248651 637.48 
M 183.50386 637.48 
L 181.729516 632.811846 
L 179.925422 627.212884 
L 178.279759 621.111017 
L 176.830136 614.612075 
L 175.61355 607.908139 
L 174.660544 601.311078 
L 173.984707 595.267386 
L 173.408891 587.853148 
L 173.198445 585.115216 
L 173.166466 585.258846 
L 172.286521 591.003162 
L 171.817202 592.677815 
L 171.400438 593.412056 
L 171.23842 593.399665 
L 171.118791 593.142658 
L 171.030986 592.34276 
L 171.090009 590.686836 
L 171.508318 587.208151 
L 171.509811 586.750678 
L 171.454843 586.795192 
L 171.05779 587.635715 
L 167.864942 595.03742 
L 165.178341 600.609558 
L 162.840659 605.023598 
L 160.32862 609.367293 
L 157.720972 613.473145 
L 155.080873 617.235669 
L 152.457338 620.595879 
L 149.888034 623.526818 
L 147.402034 626.022435 
L 145.022081 628.089757 
L 142.76626 629.743704 
L 140.649219 631.003733 
L 138.683002 631.891735 
L 136.87763 632.430746 
L 135.24149 632.644157 
L 133.781589 632.555278 
L 132.503724 632.187079 
L 131.412572 631.562085 
L 130.511744 630.702323 
L 129.803793 629.629339 
L 129.290195 628.364223 
L 128.971311 626.92765 
L 128.846325 625.339939 
L 128.913166 623.621089 
L 129.168417 621.790825 
L 129.79322 619.210793 
L 130.728315 616.512817 
L 131.952532 613.741645 
L 133.439009 610.941077 
L 135.154975 608.153614 
L 137.061788 605.419915 
L 139.646087 602.136019 
L 142.363816 599.061376 
L 145.658336 595.722672 
L 148.827529 592.824383 
L 152.608636 589.680965 
L 157.736742 585.768017 
L 160.300818 583.695265 
L 161.229911 582.690411 
L 161.711839 581.868096 
L 161.930751 581.055417 
L 161.92604 580.268629 
L 161.695287 579.453329 
L 161.262787 578.713939 
L 160.478218 577.833059 
L 158.963916 576.536149 
L 148.055664 567.854332 
L 144.84 564.842128 
L 142.088915 562.002223 
L 139.38001 558.904002 
L 136.814458 555.602643 
L 134.929194 552.86008 
L 133.23992 550.068712 
L 131.784555 547.269463 
L 130.595128 544.505023 
L 129.697775 541.819326 
L 129.112978 539.257223 
L 128.888831 537.444169 
L 128.853763 535.745799 
L 129.010957 534.181881 
L 129.362268 532.772464 
L 129.908314 531.537923 
L 130.648544 530.499 
L 131.581298 529.676858 
L 132.703848 529.093118 
L 134.012407 528.769897 
L 135.502115 528.729793 
L 137.166981 528.995845 
L 138.999783 529.591399 
L 140.991883 530.539826 
L 143.132952 531.864034 
L 145.41056 533.585617 
L 147.809552 535.723449 
L 150.311162 538.291408 
L 152.891725 541.294765 
L 155.520907 544.724606 
L 158.159351 548.54951 
L 160.755866 552.703816 
L 163.24473 557.072747 
L 165.544685 561.477206 
L 168.15635 566.962727 
L 170.952648 573.475325 
L 171.525334 574.591438 
L 171.490373 574.003982 
L 171.045584 569.993072 
L 171.060553 568.559611 
L 171.204264 568.002223 
L 171.356375 567.927451 
L 171.544909 568.104921 
L 171.874868 568.843562 
L 172.344254 570.620715 
L 172.849645 573.591016 
L 173.212735 576.262605 
L 173.266165 575.921571 
L 173.296094 575.478163 
L 173.296094 575.478163 
" clip-path="url(#pbee6a50348)" style="fill: none; stroke: #1f77b4; stroke-opacity: 0.75; stroke-width: 1.5; stroke-linecap: square"/>
   </g>
   <g id="line2d_15">
    <defs>
     <path id="m55b0ddb93a" d="M 0 1.5 
C 0.397805 1.5 0.77937 1.341951 1.06066 1.06066 
C 1.341951 0.77937 1.5 0.397805 1.5 0 
C 1.5 -0.397805 1.341951 -0.77937 1.06066 -1.06066 
C 0.77937 -1.341951 0.397805 -1.5 0 -1.5 
C -0.397805 -1.5 -0.77937 -1.341951 -1.06066 -1.06066 
C -1.341951 -0.77937 -1.5 -0.397805 -1.5 0 
C -1.5 0.397805 -1.341951 0.77937 -1.06066 1.06066 
C -0.77937 1.341951 -0.397805 1.5 0 1.5 
z
" style="stroke: #ff0000"/>
    </defs>
    <g clip-path="url(#pbee6a50348)">
     <use xlink:href="#m55b0ddb93a" x="205.029345" y="493.49361" style="fill: #ff0000; stroke: #ff0000"/>
     <use xlink:href="#m55b0ddb93a" x="212.507384" y="496.591116" style="fill: #ff0000; stroke: #ff0000"/>
     <use xlink:href="#m55b0ddb93a" x="113.657091" y="509.605004" style="fill: #ff0000; stroke: #ff0000"/>
    </g>
   </g>
   <g id="patch_3">
    <path d="M 270.496094 580.68 
C 270.496094 554.910844 260.248418 530.170766 242.026873 511.949221 
C 223.805328 493.727676 199.06525 483.48 173.296094 483.48 
C 147.526938 483.48 122.78686 493.727676 104.565315 511.949221 
C 86.34377 530.170766 76.096094 554.910844 76.096094 580.68 
" style="fill: none; stroke: #000000; stroke-width: 0.8; stroke-linejoin: miter; stroke-linecap: square"/>
   </g>
   <g id="patch_4">
    <path d="M 173.296094 580.68 
L 76.096094 580.68 
" style="fill: none; stroke: #000000; stroke-width: 0.8; stroke-linejoin: miter; stroke-linecap: square"/>
   </g>
   <g id="patch_5">
    <path d="M 173.296094 580.68 
L 270.496094 580.68 
" style="fill: none; stroke: #000000; stroke-width: 0.8; stroke-linejoin: miter; stroke-linecap: square"/>
   </g>
  </g>
  <g id="axes_2">
   <g id="patch_6">
    <path d="M 270.496094 438.12 
C 270.496094 412.350844 260.248418 387.610766 242.026873 369.389221 
C 223.805328 351.167676 199.06525 340.92 173.296094 340.92 
C 147.526938 340.92 122.78686 351.167676 104.565315 369.389221 
C 86.34377 387.610766 76.096094 412.350844 76.096094 438.12 
L 173.296094 438.12 
C 173.296094 438.12 173.296094 438.12 173.296094 438.12 
C 173.296094 438.12 173.296094 438.12 173.296094 438.12 
C 173.296094 438.12 173.296094 438.12 173.296094 438.12 
C 173.296094 438.12 173.296094 438.12 173.296094 438.12 
z
" style="fill: #ffffff"/>
   </g>
   <g id="matplotlib.axis_3">
    <g id="xtick_8">
     <g id="line2d_16">
      <path d="M 173.296094 438.12 
L 76.096094 438.12 
" clip-path="url(#pd6a79263e5)" style="fill: none; stroke: #b0b0b0; stroke-width: 0.8; stroke-linecap: square"/>
     </g>
     <g id="text_15">
      <!-- -90° -->
      <g transform="translate(51.429687 440.879375) scale(0.1 -0.1)">
       <use xlink:href="#DejaVuSans-2d"/>
       <use xlink:href="#DejaVuSans-39" transform="translate(36.083984 0)"/>
       <use xlink:href="#DejaVuSans-30" transform="translate(99.707031 0)"/>
       <use xlink:href="#DejaVuSans-b0" transform="translate(163.330078 0)"/>
      </g>
     </g>
    </g>
    <g id="xtick_9">
     <g id="line2d_17">
      <path d="M 173.296094 438.12 
L 89.118425 389.52 
" clip-path="url(#pd6a79263e5)" style="fill: none; stroke: #b0b0b0; stroke-width: 0.8; stroke-linecap: square"/>
     </g>
     <g id="text_16">
      <!-- -60° -->
      <g transform="translate(66.327663 385.279375) scale(0.1 -0.1)">
       <use xlink:href="#DejaVuSans-2d"/>
       <use xlink:href="#DejaVuSans-36" transform="translate(36.083984 0)"/>
       <use xlink:href="#DejaVuSans-30" transform="translate(99.707031 0)"/>
       <use xlink:href="#DejaVuSans-b0" transform="translate(163.330078 0)"/>
      </g>
     </g>
    </g>
    <g id="xtick_10">
     <g id="line2d_18">
      <path d="M 173.296094 438.12 
L 124.696094 353.942331 
" clip-path="url(#pd6a79263e5)" style="fill: none; stroke: #b0b0b0; stroke-width: 0.8; stroke-linecap: square"/>
     </g>
     <g id="text_17">
      <!-- -30° -->
      <g transform="translate(107.029688 344.57735) scale(0.1 -0.1)">
       <use xlink:href="#DejaVuSans-2d"/>
       <use xlink:href="#DejaVuSans-33" transform="translate(36.083984 0)"/>
       <use xlink:href="#DejaVuSans-30" transform="translate(99.707031 0)"/>
       <use xlink:href="#DejaVuSans-b0" transform="translate(163.330078 0)"/>
      </g>
     </g>
    </g>
    <g id="xtick_11">
     <g id="line2d_19">
      <path d="M 173.296094 438.12 
L 173.296094 340.92 
" clip-path="url(#pd6a79263e5)" style="fill: none; stroke: #b0b0b0; stroke-width: 0.8; stroke-linecap: square"/>
     </g>
     <g id="text_18">
      <!-- 0° -->
      <g transform="translate(167.614844 329.679375) scale(0.1 -0.1)">
       <use xlink:href="#DejaVuSans-30"/>
       <use xlink:href="#DejaVuSans-b0" transform="translate(63.623047 0)"/>
      </g>
     </g>
    </g>
    <g id="xtick_12">
     <g id="line2d_20">
      <path d="M 173.296094 438.12 
L 221.896094 353.942331 
" clip-path="url(#pd6a79263e5)" style="fill: none; stroke: #b0b0b0; stroke-width: 0.8; stroke-linecap: square"/>
     </g>
     <g id="text_19">
      <!-- 30° -->
      <g transform="translate(220.033594 344.57735) scale(0.1 -0.1)">
       <use xlink:href="#DejaVuSans-33"/>
       <use xlink:href="#DejaVuSans-30" transform="translate(63.623047 0)"/>
       <use xlink:href="#DejaVuSans-b0" transform="translate(127.246094 0)"/>
      </g>
     </g>
    </g>
    <g id="xtick_13">
     <g id="line2d_21">
      <path d="M 173.296094 438.12 
L 257.473763 389.52 
" clip-path="url(#pd6a79263e5)" style="fill: none; stroke: #b0b0b0; stroke-width: 0.8; stroke-linecap: square"/>
     </g>
     <g id="text_20">
      <!-- 60° -->
      <g transform="translate(260.735619 385.279375) scale(0.1 -0.1)">
       <use xlink:href="#DejaVuSans-36"/>
       <use xlink:href="#DejaVuSans-30" transform="translate(63.623047 0)"/>
       <use xlink:href="#DejaVuSans-b0" transform="translate(127.246094 0)"/>
      </g>
     </g>
    </g>
    <g id="xtick_14">
     <g id="line2d_22">
      <path d="M 173.296094 438.12 
L 270.496094 438.12 
" clip-path="url(#pd6a79263e5)" style="fill: none; stroke: #b0b0b0; stroke-width: 0.8; stroke-linecap: square"/>
     </g>
     <g id="text_21">
      <!-- 90° -->
      <g transform="translate(275.633594 440.879375) scale(0.1 -0.1)">
       <use xlink:href="#DejaVuSans-39"/>
       <use xlink:href="#DejaVuSans-30" transform="translate(63.623047 0)"/>
       <use xlink:href="#DejaVuSans-b0" transform="translate(127.246094 0)"/>
      </g>
     </g>
    </g>
   </g>
   <g id="matplotlib.axis_4">
    <g id="ytick_7">
     <g id="line2d_23">
      <path d="M 163.092836 438.12 
C 163.092836 435.414966 164.168553 432.817955 166.081301 430.905207 
C 167.994049 428.992459 170.591059 427.916742 173.296094 427.916742 
C 176.001128 427.916742 178.598139 428.992459 180.510887 430.905207 
C 182.423635 432.817955 183.499352 435.414966 183.499352 438.12 
" clip-path="url(#pd6a79263e5)" style="fill: none; stroke: #b0b0b0; stroke-width: 0.8; stroke-linecap: square"/>
     </g>
     <g id="text_22">
      <!-- −12 -->
      <g transform="translate(152.540492 452.718437) scale(0.1 -0.1)">
       <use xlink:href="#DejaVuSans-2212"/>
       <use xlink:href="#DejaVuSans-31" transform="translate(83.789062 0)"/>
       <use xlink:href="#DejaVuSans-32" transform="translate(147.412109 0)"/>
      </g>
     </g>
    </g>
    <g id="ytick_8">
     <g id="line2d_24">
      <path d="M 150.485422 438.12 
C 150.485422 432.072554 152.890323 426.266609 157.166513 421.990419 
C 161.442703 417.714229 167.248648 415.309328 173.296094 415.309328 
C 179.34354 415.309328 185.149484 417.714229 189.425674 421.990419 
C 193.701865 426.266609 196.106766 432.072554 196.106766 438.12 
" clip-path="url(#pd6a79263e5)" style="fill: none; stroke: #b0b0b0; stroke-width: 0.8; stroke-linecap: square"/>
     </g>
     <g id="text_23">
      <!-- −10 -->
      <g transform="translate(139.933078 452.718437) scale(0.1 -0.1)">
       <use xlink:href="#DejaVuSans-2212"/>
       <use xlink:href="#DejaVuSans-31" transform="translate(83.789062 0)"/>
       <use xlink:href="#DejaVuSans-30" transform="translate(147.412109 0)"/>
      </g>
     </g>
    </g>
    <g id="ytick_9">
     <g id="line2d_25">
      <path d="M 137.878008 438.12 
C 137.878008 428.730142 141.612093 419.715264 148.251725 413.075632 
C 154.891357 406.435999 163.906236 402.701914 173.296094 402.701914 
C 182.685951 402.701914 191.70083 406.435999 198.340462 413.075632 
C 204.980094 419.715264 208.714179 428.730142 208.714179 438.12 
" clip-path="url(#pd6a79263e5)" style="fill: none; stroke: #b0b0b0; stroke-width: 0.8; stroke-linecap: square"/>
     </g>
     <g id="text_24">
      <!-- −8 -->
      <g transform="translate(130.506914 452.718437) scale(0.1 -0.1)">
       <use xlink:href="#DejaVuSans-2212"/>
       <use xlink:href="#DejaVuSans-38" transform="translate(83.789062 0)"/>
      </g>
     </g>
    </g>
    <g id="ytick_10">
     <g id="line2d_26">
      <path d="M 125.270594 438.12 
C 125.270594 425.387731 130.333863 413.163918 139.336938 404.160844 
C 148.340012 395.15777 160.563824 390.094501 173.296094 390.094501 
C 186.028363 390.094501 198.252176 395.15777 207.25525 404.160844 
C 216.258324 413.163918 221.321593 425.387731 221.321593 438.12 
" clip-path="url(#pd6a79263e5)" style="fill: none; stroke: #b0b0b0; stroke-width: 0.8; stroke-linecap: square"/>
     </g>
     <g id="text_25">
      <!-- −6 -->
      <g transform="translate(117.899501 452.718437) scale(0.1 -0.1)">
       <use xlink:href="#DejaVuSans-2212"/>
       <use xlink:href="#DejaVuSans-36" transform="translate(83.789062 0)"/>
      </g>
     </g>
    </g>
    <g id="ytick_11">
     <g id="line2d_27">
      <path d="M 112.663181 438.12 
C 112.663181 422.045319 119.055634 406.612572 130.42215 395.246056 
C 141.788666 383.87954 157.221413 377.487087 173.296094 377.487087 
C 189.370775 377.487087 204.803522 383.87954 216.170038 395.246056 
C 227.536554 406.612572 233.929007 422.045319 233.929007 438.12 
" clip-path="url(#pd6a79263e5)" style="fill: none; stroke: #b0b0b0; stroke-width: 0.8; stroke-linecap: square"/>
     </g>
     <g id="text_26">
      <!-- −4 -->
      <g transform="translate(105.292087 452.718437) scale(0.1 -0.1)">
       <use xlink:href="#DejaVuSans-2212"/>
       <use xlink:href="#DejaVuSans-34" transform="translate(83.789062 0)"/>
      </g>
     </g>
    </g>
    <g id="ytick_12">
     <g id="line2d_28">
      <path d="M 100.055767 438.12 
C 100.055767 418.702907 107.777404 400.061226 121.507362 386.331268 
C 135.23732 372.60131 153.879001 364.879673 173.296094 364.879673 
C 192.713186 364.879673 211.354868 372.60131 225.084826 386.331268 
C 238.814783 400.061226 246.536421 418.702907 246.536421 438.12 
" clip-path="url(#pd6a79263e5)" style="fill: none; stroke: #b0b0b0; stroke-width: 0.8; stroke-linecap: square"/>
     </g>
     <g id="text_27">
      <!-- −2 -->
      <g transform="translate(92.684673 452.718437) scale(0.1 -0.1)">
       <use xlink:href="#DejaVuSans-2212"/>
       <use xlink:href="#DejaVuSans-32" transform="translate(83.789062 0)"/>
      </g>
     </g>
    </g>
    <g id="ytick_13">
     <g id="line2d_29">
      <path d="M 87.448353 438.12 
C 87.448353 415.360496 96.499174 393.50988 112.592574 377.41648 
C 128.685974 361.323081 150.536589 352.272259 173.296094 352.272259 
C 196.055598 352.272259 217.906213 361.323081 233.999613 377.41648 
C 250.093013 393.50988 259.143834 415.360496 259.143834 438.12 
" clip-path="url(#pd6a79263e5)" style="fill: none; stroke: #b0b0b0; stroke-width: 0.8; stroke-linecap: square"/>
     </g>
     <g id="text_28">
      <!-- 0 -->
      <g transform="translate(84.267103 452.718437) scale(0.1 -0.1)">
       <use xlink:href="#DejaVuSans-30"/>
      </g>
     </g>
    </g>
    <g id="text_29">
     <!-- Capon -->
     <g transform="translate(10.138281 387.440312) scale(0.1 -0.1)">
      <defs>
       <path id="DejaVuSans-43" d="M 4122 4306 
L 4122 3641 
Q 3803 3938 3442 4084 
Q 3081 4231 2675 4231 
Q 1875 4231 1450 3742 
Q 1025 3253 1025 2328 
Q 1025 1406 1450 917 
Q 1875 428 2675 428 
Q 3081 428 3442 575 
Q 3803 722 4122 1019 
L 4122 359 
Q 3791 134 3420 21 
Q 3050 -91 2638 -91 
Q 1578 -91 968 557 
Q 359 1206 359 2328 
Q 359 3453 968 4101 
Q 1578 4750 2638 4750 
Q 3056 4750 3426 4639 
Q 3797 4528 4122 4306 
z
" transform="scale(0.015625)"/>
       <path id="DejaVuSans-70" d="M 1159 525 
L 1159 -1331 
L 581 -1331 
L 581 3500 
L 1159 3500 
L 1159 2969 
Q 1341 3281 1617 3432 
Q 1894 3584 2278 3584 
Q 2916 3584 3314 3078 
Q 3713 2572 3713 1747 
Q 3713 922 3314 415 
Q 2916 -91 2278 -91 
Q 1894 -91 1617 61 
Q 1341 213 1159 525 
z
M 3116 1747 
Q 3116 2381 2855 2742 
Q 2594 3103 2138 3103 
Q 1681 3103 1420 2742 
Q 1159 2381 1159 1747 
Q 1159 1113 1420 752 
Q 1681 391 2138 391 
Q 2594 391 2855 752 
Q 3116 1113 3116 1747 
z
" transform="scale(0.015625)"/>
       <path id="DejaVuSans-6f" d="M 1959 3097 
Q 1497 3097 1228 2736 
Q 959 2375 959 1747 
Q 959 1119 1226 758 
Q 1494 397 1959 397 
Q 2419 397 2687 759 
Q 2956 1122 2956 1747 
Q 2956 2369 2687 2733 
Q 2419 3097 1959 3097 
z
M 1959 3584 
Q 2709 3584 3137 3096 
Q 3566 2609 3566 1747 
Q 3566 888 3137 398 
Q 2709 -91 1959 -91 
Q 1206 -91 779 398 
Q 353 888 353 1747 
Q 353 2609 779 3096 
Q 1206 3584 1959 3584 
z
" transform="scale(0.015625)"/>
       <path id="DejaVuSans-6e" d="M 3513 2113 
L 3513 0 
L 2938 0 
L 2938 2094 
Q 2938 2591 2744 2837 
Q 2550 3084 2163 3084 
Q 1697 3084 1428 2787 
Q 1159 2491 1159 1978 
L 1159 0 
L 581 0 
L 581 3500 
L 1159 3500 
L 1159 2956 
Q 1366 3272 1645 3428 
Q 1925 3584 2291 3584 
Q 2894 3584 3203 3211 
Q 3513 2838 3513 2113 
z
" transform="scale(0.015625)"/>
      </defs>
      <use xlink:href="#DejaVuSans-43"/>
      <use xlink:href="#DejaVuSans-61" transform="translate(69.824219 0)"/>
      <use xlink:href="#DejaVuSans-70" transform="translate(131.103516 0)"/>
      <use xlink:href="#DejaVuSans-6f" transform="translate(194.580078 0)"/>
      <use xlink:href="#DejaVuSans-6e" transform="translate(255.761719 0)"/>
     </g>
    </g>
   </g>
   <g id="line2d_30">
    <path d="M 173.296094 427.999316 
L 174.304184 423.572154 
L 175.625793 418.7175 
L 177.460819 412.879201 
L 179.771866 406.379982 
L 182.401705 399.700407 
L 185.085894 393.417716 
L 188.38073 386.25314 
L 191.288412 380.343717 
L 194.554436 374.134457 
L 198.071289 367.999367 
L 200.427977 364.29891 
L 202.639624 361.280515 
L 203.636546 360.145029 
L 204.529835 359.319468 
L 205.298093 358.840501 
L 205.92401 358.732082 
L 206.396252 359.002008 
L 206.710609 359.64061 
L 206.87011 360.621966 
L 206.884123 361.907332 
L 206.534879 365.199336 
L 205.799183 369.12628 
L 204.256666 375.493396 
L 202.472533 381.802603 
L 200.033633 389.542511 
L 197.149019 397.836074 
L 194.55498 404.663232 
L 191.842301 411.230315 
L 189.181458 417.12882 
L 186.434044 422.661304 
L 183.880436 427.28303 
L 181.535139 431.05064 
L 179.344164 434.128484 
L 178.071517 435.988444 
L 178.011621 436.428836 
L 178.20959 436.799291 
L 178.951545 437.844115 
L 178.972246 438.307493 
L 178.7669 438.785619 
L 178.015281 440.068234 
L 178.233228 440.570428 
L 179.07328 441.752762 
L 181.465651 445.085251 
L 183.58707 448.459635 
L 185.7847 452.354881 
L 188.348384 457.373569 
L 190.833316 462.710368 
L 193.372962 468.645395 
L 196.338539 476.21084 
L 199.141628 484.045824 
L 201.553917 491.426893 
L 203.380002 497.555214 
L 205.075256 503.958718 
L 206.011653 508.134979 
L 206.664002 511.938152 
L 206.89451 515.010554 
L 206.809263 516.149384 
L 206.57314 516.963505 
L 206.179777 517.42005 
L 205.629711 517.50092 
L 204.930795 517.205183 
L 204.097552 516.54903 
L 203.149602 515.563304 
L 201.000917 512.774073 
L 198.665656 509.210334 
L 196.293797 505.218488 
L 192.88043 498.979951 
L 189.787309 492.890905 
L 186.245673 485.406024 
L 183.342085 478.793493 
L 180.485321 471.73468 
L 177.965023 464.844464 
L 175.955846 458.634316 
L 174.504094 453.453686 
L 173.396185 448.729108 
L 172.719261 444.897299 
L 172.2891 442.429185 
L 172.136875 442.572033 
L 171.657322 443.441255 
L 168.94425 448.614609 
L 166.412576 452.851503 
L 163.327553 457.510682 
L 159.972599 462.14731 
L 156.700987 466.348697 
L 152.863683 470.956398 
L 148.45826 475.884091 
L 144.826333 479.676606 
L 141.013853 483.38556 
L 137.201679 486.762703 
L 134.799321 488.659184 
L 132.635765 490.129126 
L 130.831301 491.051343 
L 130.098859 491.275893 
L 129.49478 491.331909 
L 129.026929 491.216143 
L 128.699724 490.929721 
L 128.513909 490.478139 
L 128.466619 489.870917 
L 128.760443 488.243599 
L 129.504159 486.175316 
L 130.600166 483.804861 
L 132.692266 479.955354 
L 135.080335 476.036487 
L 138.400418 471.042372 
L 142.424938 465.462794 
L 146.112365 460.712204 
L 150.007413 456.033707 
L 153.836403 451.768634 
L 157.754506 447.756869 
L 161.276587 444.467314 
L 165.45339 440.904882 
L 167.009121 439.454271 
L 167.467345 438.754874 
L 167.601517 438.164771 
L 167.505374 437.58125 
L 167.182674 437.002349 
L 166.483959 436.242934 
L 164.611186 434.630117 
L 160.582475 431.14832 
L 157.172504 427.910405 
L 153.586984 424.203753 
L 149.705057 419.855351 
L 145.76133 415.089271 
L 142.035649 410.256496 
L 137.985887 404.596034 
L 134.671025 399.555616 
L 132.316544 395.630987 
L 130.298655 391.821515 
L 129.281246 389.513918 
L 128.641277 387.542845 
L 128.473261 386.046753 
L 128.589241 385.515933 
L 128.845613 385.14598 
L 129.243465 384.944467 
L 129.780206 384.914729 
L 130.449649 385.055682 
L 132.146353 385.824624 
L 134.231366 387.168398 
L 136.585097 388.970104 
L 140.372048 392.260271 
L 144.199804 395.934013 
L 147.870357 399.72558 
L 152.343463 404.682449 
L 156.252799 409.336494 
L 160.343519 414.587409 
L 163.62168 419.155015 
L 166.62865 423.733127 
L 169.08783 427.880753 
L 171.27116 432.025145 
L 172.273527 433.805454 
L 172.37744 433.757615 
L 172.477433 433.345554 
L 173.296094 427.999316 
L 173.296094 427.999316 
" clip-path="url(#pd6a79263e5)" style="fill: none; stroke: #1f77b4; stroke-opacity: 0.75; stroke-width: 1.5; stroke-linecap: square"/>
   </g>
   <g id="line2d_31">
    <g clip-path="url(#pd6a79263e5)">
     <use xlink:href="#m55b0ddb93a" x="205.029345" y="350.93361" style="fill: #ff0000; stroke: #ff0000"/>
     <use xlink:href="#m55b0ddb93a" x="212.507384" y="354.031116" style="fill: #ff0000; stroke: #ff0000"/>
     <use xlink:href="#m55b0ddb93a" x="113.657091" y="367.045004" style="fill: #ff0000; stroke: #ff0000"/>
    </g>
   </g>
   <g id="patch_7">
    <path d="M 270.496094 438.12 
C 270.496094 412.350844 260.248418 387.610766 242.026873 369.389221 
C 223.805328 351.167676 199.06525 340.92 173.296094 340.92 
C 147.526938 340.92 122.78686 351.167676 104.565315 369.389221 
C 86.34377 387.610766 76.096094 412.350844 76.096094 438.12 
" style="fill: none; stroke: #000000; stroke-width: 0.8; stroke-linejoin: miter; stroke-linecap: square"/>
   </g>
   <g id="patch_8">
    <path d="M 173.296094 438.12 
L 76.096094 438.12 
" style="fill: none; stroke: #000000; stroke-width: 0.8; stroke-linejoin: miter; stroke-linecap: square"/>
   </g>
   <g id="patch_9">
    <path d="M 173.296094 438.12 
L 270.496094 438.12 
" style="fill: none; stroke: #000000; stroke-width: 0.8; stroke-linejoin: miter; stroke-linecap: square"/>
   </g>
  </g>
  <g id="axes_3">
   <g id="patch_10">
    <path d="M 270.496094 295.56 
C 270.496094 269.790844 260.248418 245.050766 242.026873 226.829221 
C 223.805328 208.607676 199.06525 198.36 173.296094 198.36 
C 147.526938 198.36 122.78686 208.607676 104.565315 226.829221 
C 86.34377 245.050766 76.096094 269.790844 76.096094 295.56 
L 173.296094 295.56 
C 173.296094 295.56 173.296094 295.56 173.296094 295.56 
C 173.296094 295.56 173.296094 295.56 173.296094 295.56 
C 173.296094 295.56 173.296094 295.56 173.296094 295.56 
C 173.296094 295.56 173.296094 295.56 173.296094 295.56 
z
" style="fill: #ffffff"/>
   </g>
   <g id="matplotlib.axis_5">
    <g id="xtick_15">
     <g id="line2d_32">
      <path d="M 173.296094 295.56 
L 76.096094 295.56 
" clip-path="url(#p90c67be63d)" style="fill: none; stroke: #b0b0b0; stroke-width: 0.8; stroke-linecap: square"/>
     </g>
     <g id="text_30">
      <!-- -90° -->
      <g transform="translate(51.429687 298.319375) scale(0.1 -0.1)">
       <use xlink:href="#DejaVuSans-2d"/>
       <use xlink:href="#DejaVuSans-39" transform="translate(36.083984 0)"/>
       <use xlink:href="#DejaVuSans-30" transform="translate(99.707031 0)"/>
       <use xlink:href="#DejaVuSans-b0" transform="translate(163.330078 0)"/>
      </g>
     </g>
    </g>
    <g id="xtick_16">
     <g id="line2d_33">
      <path d="M 173.296094 295.56 
L 89.118425 246.96 
" clip-path="url(#p90c67be63d)" style="fill: none; stroke: #b0b0b0; stroke-width: 0.8; stroke-linecap: square"/>
     </g>
     <g id="text_31">
      <!-- -60° -->
      <g transform="translate(66.327663 242.719375) scale(0.1 -0.1)">
       <use xlink:href="#DejaVuSans-2d"/>
       <use xlink:href="#DejaVuSans-36" transform="translate(36.083984 0)"/>
       <use xlink:href="#DejaVuSans-30" transform="translate(99.707031 0)"/>
       <use xlink:href="#DejaVuSans-b0" transform="translate(163.330078 0)"/>
      </g>
     </g>
    </g>
    <g id="xtick_17">
     <g id="line2d_34">
      <path d="M 173.296094 295.56 
L 124.696094 211.382331 
" clip-path="url(#p90c67be63d)" style="fill: none; stroke: #b0b0b0; stroke-width: 0.8; stroke-linecap: square"/>
     </g>
     <g id="text_32">
      <!-- -30° -->
      <g transform="translate(107.029688 202.01735) scale(0.1 -0.1)">
       <use xlink:href="#DejaVuSans-2d"/>
       <use xlink:href="#DejaVuSans-33" transform="translate(36.083984 0)"/>
       <use xlink:href="#DejaVuSans-30" transform="translate(99.707031 0)"/>
       <use xlink:href="#DejaVuSans-b0" transform="translate(163.330078 0)"/>
      </g>
     </g>
    </g>
    <g id="xtick_18">
     <g id="line2d_35">
      <path d="M 173.296094 295.56 
L 173.296094 198.36 
" clip-path="url(#p90c67be63d)" style="fill: none; stroke: #b0b0b0; stroke-width: 0.8; stroke-linecap: square"/>
     </g>
     <g id="text_33">
      <!-- 0° -->
      <g transform="translate(167.614844 187.119375) scale(0.1 -0.1)">
       <use xlink:href="#DejaVuSans-30"/>
       <use xlink:href="#DejaVuSans-b0" transform="translate(63.623047 0)"/>
      </g>
     </g>
    </g>
    <g id="xtick_19">
     <g id="line2d_36">
      <path d="M 173.296094 295.56 
L 221.896094 211.382331 
" clip-path="url(#p90c67be63d)" style="fill: none; stroke: #b0b0b0; stroke-width: 0.8; stroke-linecap: square"/>
     </g>
     <g id="text_34">
      <!-- 30° -->
      <g transform="translate(220.033594 202.01735) scale(0.1 -0.1)">
       <use xlink:href="#DejaVuSans-33"/>
       <use xlink:href="#DejaVuSans-30" transform="translate(63.623047 0)"/>
       <use xlink:href="#DejaVuSans-b0" transform="translate(127.246094 0)"/>
      </g>
     </g>
    </g>
    <g id="xtick_20">
     <g id="line2d_37">
      <path d="M 173.296094 295.56 
L 257.473763 246.96 
" clip-path="url(#p90c67be63d)" style="fill: none; stroke: #b0b0b0; stroke-width: 0.8; stroke-linecap: square"/>
     </g>
     <g id="text_35">
      <!-- 60° -->
      <g transform="translate(260.735619 242.719375) scale(0.1 -0.1)">
       <use xlink:href="#DejaVuSans-36"/>
       <use xlink:href="#DejaVuSans-30" transform="translate(63.623047 0)"/>
       <use xlink:href="#DejaVuSans-b0" transform="translate(127.246094 0)"/>
      </g>
     </g>
    </g>
    <g id="xtick_21">
     <g id="line2d_38">
      <path d="M 173.296094 295.56 
L 270.496094 295.56 
" clip-path="url(#p90c67be63d)" style="fill: none; stroke: #b0b0b0; stroke-width: 0.8; stroke-linecap: square"/>
     </g>
     <g id="text_36">
      <!-- 90° -->
      <g transform="translate(275.633594 298.319375) scale(0.1 -0.1)">
       <use xlink:href="#DejaVuSans-39"/>
       <use xlink:href="#DejaVuSans-30" transform="translate(63.623047 0)"/>
       <use xlink:href="#DejaVuSans-b0" transform="translate(127.246094 0)"/>
      </g>
     </g>
    </g>
   </g>
   <g id="matplotlib.axis_6">
    <g id="ytick_14">
     <g id="line2d_39">
      <path d="M 170.088886 295.56 
C 170.088886 294.709722 170.427018 293.893399 171.028256 293.292162 
C 171.629493 292.690924 172.445816 292.352792 173.296094 292.352792 
C 174.146372 292.352792 174.962695 292.690924 175.563932 293.292162 
C 176.165169 293.893399 176.503301 294.709722 176.503301 295.56 
" clip-path="url(#p90c67be63d)" style="fill: none; stroke: #b0b0b0; stroke-width: 0.8; stroke-linecap: square"/>
     </g>
     <g id="text_37">
      <!-- −25 -->
      <g transform="translate(159.536542 310.158437) scale(0.1 -0.1)">
       <defs>
        <path id="DejaVuSans-35" d="M 691 4666 
L 3169 4666 
L 3169 4134 
L 1269 4134 
L 1269 2991 
Q 1406 3038 1543 3061 
Q 1681 3084 1819 3084 
Q 2600 3084 3056 2656 
Q 3513 2228 3513 1497 
Q 3513 744 3044 326 
Q 2575 -91 1722 -91 
Q 1428 -91 1123 -41 
Q 819 9 494 109 
L 494 744 
Q 775 591 1075 516 
Q 1375 441 1709 441 
Q 2250 441 2565 725 
Q 2881 1009 2881 1497 
Q 2881 1984 2565 2268 
Q 2250 2553 1709 2553 
Q 1456 2553 1204 2497 
Q 953 2441 691 2322 
L 691 4666 
z
" transform="scale(0.015625)"/>
       </defs>
       <use xlink:href="#DejaVuSans-2212"/>
       <use xlink:href="#DejaVuSans-32" transform="translate(83.789062 0)"/>
       <use xlink:href="#DejaVuSans-35" transform="translate(147.412109 0)"/>
      </g>
     </g>
    </g>
    <g id="ytick_15">
     <g id="line2d_40">
      <path d="M 152.928999 295.56 
C 152.928999 290.160382 155.076277 284.976396 158.894383 281.158289 
C 162.712489 277.340183 167.896476 275.192905 173.296094 275.192905 
C 178.695711 275.192905 183.879698 277.340183 187.697805 281.158289 
C 191.515911 284.976396 193.663188 290.160382 193.663188 295.56 
" clip-path="url(#p90c67be63d)" style="fill: none; stroke: #b0b0b0; stroke-width: 0.8; stroke-linecap: square"/>
     </g>
     <g id="text_38">
      <!-- −20 -->
      <g transform="translate(142.376655 310.158437) scale(0.1 -0.1)">
       <use xlink:href="#DejaVuSans-2212"/>
       <use xlink:href="#DejaVuSans-32" transform="translate(83.789062 0)"/>
       <use xlink:href="#DejaVuSans-30" transform="translate(147.412109 0)"/>
      </g>
     </g>
    </g>
    <g id="ytick_16">
     <g id="line2d_41">
      <path d="M 135.769112 295.56 
C 135.769112 285.611043 139.725535 276.059392 146.76051 269.024417 
C 153.795486 261.989442 163.347136 258.033018 173.296094 258.033018 
C 183.245051 258.033018 192.796702 261.989442 199.831677 269.024417 
C 206.866652 276.059392 210.823076 285.611043 210.823076 295.56 
" clip-path="url(#p90c67be63d)" style="fill: none; stroke: #b0b0b0; stroke-width: 0.8; stroke-linecap: square"/>
     </g>
     <g id="text_39">
      <!-- −15 -->
      <g transform="translate(125.216768 310.158437) scale(0.1 -0.1)">
       <use xlink:href="#DejaVuSans-2212"/>
       <use xlink:href="#DejaVuSans-31" transform="translate(83.789062 0)"/>
       <use xlink:href="#DejaVuSans-35" transform="translate(147.412109 0)"/>
      </g>
     </g>
    </g>
    <g id="ytick_17">
     <g id="line2d_42">
      <path d="M 118.609225 295.56 
C 118.609225 281.061703 124.374794 267.142388 134.626638 256.890544 
C 144.878482 246.6387 158.797797 240.873131 173.296094 240.873131 
C 187.794391 240.873131 201.713706 246.6387 211.96555 256.890544 
C 222.217394 267.142388 227.982963 281.061703 227.982963 295.56 
" clip-path="url(#p90c67be63d)" style="fill: none; stroke: #b0b0b0; stroke-width: 0.8; stroke-linecap: square"/>
     </g>
     <g id="text_40">
      <!-- −10 -->
      <g transform="translate(108.056881 310.158437) scale(0.1 -0.1)">
       <use xlink:href="#DejaVuSans-2212"/>
       <use xlink:href="#DejaVuSans-31" transform="translate(83.789062 0)"/>
       <use xlink:href="#DejaVuSans-30" transform="translate(147.412109 0)"/>
      </g>
     </g>
    </g>
    <g id="ytick_18">
     <g id="line2d_43">
      <path d="M 101.449338 295.56 
C 101.449338 276.512364 109.024053 258.225385 122.492765 244.756672 
C 135.961478 231.287959 154.248457 223.713244 173.296094 223.713244 
C 192.34373 223.713244 210.630709 231.287959 224.099422 244.756672 
C 237.568135 258.225385 245.14285 276.512364 245.14285 295.56 
" clip-path="url(#p90c67be63d)" style="fill: none; stroke: #b0b0b0; stroke-width: 0.8; stroke-linecap: square"/>
     </g>
     <g id="text_41">
      <!-- −5 -->
      <g transform="translate(94.078244 310.158437) scale(0.1 -0.1)">
       <use xlink:href="#DejaVuSans-2212"/>
       <use xlink:href="#DejaVuSans-35" transform="translate(83.789062 0)"/>
      </g>
     </g>
    </g>
    <g id="ytick_19">
     <g id="line2d_44">
      <path d="M 84.289451 295.56 
C 84.289451 271.963024 93.673311 249.308381 110.358893 232.622799 
C 127.044475 215.937217 149.699118 206.553357 173.296094 206.553357 
C 196.89307 206.553357 219.547713 215.937217 236.233295 232.622799 
C 252.918876 249.308381 262.302737 271.963024 262.302737 295.56 
" clip-path="url(#p90c67be63d)" style="fill: none; stroke: #b0b0b0; stroke-width: 0.8; stroke-linecap: square"/>
     </g>
     <g id="text_42">
      <!-- 0 -->
      <g transform="translate(81.108201 310.158437) scale(0.1 -0.1)">
       <use xlink:href="#DejaVuSans-30"/>
      </g>
     </g>
    </g>
    <g id="text_43">
     <!-- MEM -->
     <g transform="translate(14.308594 244.880312) scale(0.1 -0.1)">
      <defs>
       <path id="DejaVuSans-4d" d="M 628 4666 
L 1569 4666 
L 2759 1491 
L 3956 4666 
L 4897 4666 
L 4897 0 
L 4281 0 
L 4281 4097 
L 3078 897 
L 2444 897 
L 1241 4097 
L 1241 0 
L 628 0 
L 628 4666 
z
" transform="scale(0.015625)"/>
       <path id="DejaVuSans-45" d="M 628 4666 
L 3578 4666 
L 3578 4134 
L 1259 4134 
L 1259 2753 
L 3481 2753 
L 3481 2222 
L 1259 2222 
L 1259 531 
L 3634 531 
L 3634 0 
L 628 0 
L 628 4666 
z
" transform="scale(0.015625)"/>
      </defs>
      <use xlink:href="#DejaVuSans-4d"/>
      <use xlink:href="#DejaVuSans-45" transform="translate(86.279297 0)"/>
      <use xlink:href="#DejaVuSans-4d" transform="translate(149.462891 0)"/>
     </g>
    </g>
   </g>
   <g id="line2d_45">
    <path d="M 173.296094 283.555493 
L 173.868618 284.190977 
L 174.154663 284.205873 
L 174.473107 283.90325 
L 174.967972 282.975517 
L 175.987725 280.434113 
L 179.468398 271.545544 
L 182.739981 263.833742 
L 186.966254 254.414147 
L 193.828646 239.694531 
L 200.386813 225.936843 
L 203.053202 220.48491 
L 205.579572 215.583184 
L 207.131061 213.235171 
L 206.970076 215.070419 
L 205.517721 219.882299 
L 200.162363 235.623635 
L 191.273039 260.860263 
L 186.652633 273.323067 
L 183.191398 282.653687 
L 182.853492 284.169936 
L 182.86597 284.99188 
L 183.116213 285.631195 
L 183.93704 287.105367 
L 183.932533 287.847496 
L 183.686799 288.702496 
L 183.160434 289.740054 
L 182.199257 291.106179 
L 180.648 292.871026 
L 179.254135 294.509437 
L 178.964309 295.176176 
L 178.934445 295.781753 
L 179.125188 296.381095 
L 179.619185 297.111203 
L 181.0825 298.717311 
L 182.609919 300.553652 
L 183.417191 301.835787 
L 183.838595 302.855805 
L 183.965212 303.660417 
L 183.852725 304.333541 
L 183.504568 304.951322 
L 182.932849 305.871377 
L 182.829838 306.565706 
L 182.96814 307.615973 
L 183.425376 309.210745 
L 184.660647 312.604493 
L 190.961041 329.396564 
L 196.806759 345.875471 
L 204.594854 368.433531 
L 206.344635 373.862106 
L 207.266709 377.481223 
L 206.542464 377.181783 
L 204.374502 373.254478 
L 199.12356 362.559304 
L 189.934557 343.127131 
L 183.825034 329.748511 
L 179.688608 320.110737 
L 176.717425 312.602582 
L 174.703103 307.597731 
L 174.268634 306.986516 
L 173.973931 306.891049 
L 173.694199 307.063953 
L 172.453794 308.295937 
L 172.220099 308.202027 
L 171.946951 307.768064 
L 171.741093 306.989294 
L 171.587229 305.341362 
L 171.62001 303.162742 
L 171.809654 299.725288 
L 171.732103 299.774366 
L 171.277628 300.427595 
L 167.930697 305.681538 
L 165.229797 309.480641 
L 162.059078 313.618717 
L 157.708096 318.938791 
L 151.585007 326.002883 
L 144.641602 333.673002 
L 134.76237 344.215166 
L 128.784205 350.333627 
L 126.092126 352.905614 
L 124.273391 354.357505 
L 123.859009 354.101955 
L 124.877266 352.170005 
L 126.838579 349.190318 
L 131.600741 342.486925 
L 139.796904 331.404304 
L 148.013683 320.644422 
L 154.24385 312.867207 
L 159.061956 307.239315 
L 162.755658 303.253583 
L 166.405809 299.654523 
L 168.39561 297.619248 
L 168.537452 297.182646 
L 168.396882 296.860363 
L 167.689133 295.745208 
L 167.718065 295.252715 
L 167.979337 294.759849 
L 168.53667 293.853093 
L 168.37932 293.47569 
L 167.81051 292.815829 
L 164.392738 289.521966 
L 161.08976 286.109614 
L 157.176443 281.728833 
L 152.299031 275.874728 
L 146.289743 268.254753 
L 138.916709 258.541204 
L 130.4044 246.979802 
L 125.777996 240.35551 
L 124.212476 237.806037 
L 123.873063 236.659926 
L 125.033882 237.303117 
L 127.3684 239.405902 
L 133.291021 245.372102 
L 141.342342 253.883148 
L 150.837473 264.277505 
L 157.188873 271.5663 
L 161.684122 277.028872 
L 165.495972 282.000601 
L 168.457249 286.219891 
L 171.101967 290.406739 
L 171.824222 291.394196 
L 171.876169 291.286165 
L 171.841505 290.558555 
L 171.580021 286.870252 
L 171.653866 284.763282 
L 171.917101 283.431303 
L 172.183093 282.952511 
L 172.494148 282.826217 
L 172.821715 282.995262 
L 173.296094 283.555493 
L 173.296094 283.555493 
" clip-path="url(#p90c67be63d)" style="fill: none; stroke: #1f77b4; stroke-opacity: 0.75; stroke-width: 1.5; stroke-linecap: square"/>
   </g>
   <g id="line2d_46">
    <g clip-path="url(#p90c67be63d)">
     <use xlink:href="#m55b0ddb93a" x="205.029345" y="208.37361" style="fill: #ff0000; stroke: #ff0000"/>
     <use xlink:href="#m55b0ddb93a" x="212.507384" y="211.471116" style="fill: #ff0000; stroke: #ff0000"/>
     <use xlink:href="#m55b0ddb93a" x="113.657091" y="224.485004" style="fill: #ff0000; stroke: #ff0000"/>
    </g>
   </g>
   <g id="patch_11">
    <path d="M 270.496094 295.56 
C 270.496094 269.790844 260.248418 245.050766 242.026873 226.829221 
C 223.805328 208.607676 199.06525 198.36 173.296094 198.36 
C 147.526938 198.36 122.78686 208.607676 104.565315 226.829221 
C 86.34377 245.050766 76.096094 269.790844 76.096094 295.56 
" style="fill: none; stroke: #000000; stroke-width: 0.8; stroke-linejoin: miter; stroke-linecap: square"/>
   </g>
   <g id="patch_12">
    <path d="M 173.296094 295.56 
L 76.096094 295.56 
" style="fill: none; stroke: #000000; stroke-width: 0.8; stroke-linejoin: miter; stroke-linecap: square"/>
   </g>
   <g id="patch_13">
    <path d="M 173.296094 295.56 
L 270.496094 295.56 
" style="fill: none; stroke: #000000; stroke-width: 0.8; stroke-linejoin: miter; stroke-linecap: square"/>
   </g>
  </g>
  <g id="axes_4">
   <g id="patch_14">
    <path d="M 270.496094 153 
C 270.496094 127.230844 260.248418 102.490766 242.026873 84.269221 
C 223.805328 66.047676 199.06525 55.8 173.296094 55.8 
C 147.526938 55.8 122.78686 66.047676 104.565315 84.269221 
C 86.34377 102.490766 76.096094 127.230844 76.096094 153 
L 173.296094 153 
C 173.296094 153 173.296094 153 173.296094 153 
C 173.296094 153 173.296094 153 173.296094 153 
C 173.296094 153 173.296094 153 173.296094 153 
C 173.296094 153 173.296094 153 173.296094 153 
z
" style="fill: #ffffff"/>
   </g>
   <g id="matplotlib.axis_7">
    <g id="xtick_22">
     <g id="line2d_47">
      <path d="M 173.296094 153 
L 76.096094 153 
" clip-path="url(#p5c1c02d4a6)" style="fill: none; stroke: #b0b0b0; stroke-width: 0.8; stroke-linecap: square"/>
     </g>
     <g id="text_44">
      <!-- -90° -->
      <g transform="translate(51.429687 155.759375) scale(0.1 -0.1)">
       <use xlink:href="#DejaVuSans-2d"/>
       <use xlink:href="#DejaVuSans-39" transform="translate(36.083984 0)"/>
       <use xlink:href="#DejaVuSans-30" transform="translate(99.707031 0)"/>
       <use xlink:href="#DejaVuSans-b0" transform="translate(163.330078 0)"/>
      </g>
     </g>
    </g>
    <g id="xtick_23">
     <g id="line2d_48">
      <path d="M 173.296094 153 
L 89.118425 104.4 
" clip-path="url(#p5c1c02d4a6)" style="fill: none; stroke: #b0b0b0; stroke-width: 0.8; stroke-linecap: square"/>
     </g>
     <g id="text_45">
      <!-- -60° -->
      <g transform="translate(66.327663 100.159375) scale(0.1 -0.1)">
       <use xlink:href="#DejaVuSans-2d"/>
       <use xlink:href="#DejaVuSans-36" transform="translate(36.083984 0)"/>
       <use xlink:href="#DejaVuSans-30" transform="translate(99.707031 0)"/>
       <use xlink:href="#DejaVuSans-b0" transform="translate(163.330078 0)"/>
      </g>
     </g>
    </g>
    <g id="xtick_24">
     <g id="line2d_49">
      <path d="M 173.296094 153 
L 124.696094 68.822331 
" clip-path="url(#p5c1c02d4a6)" style="fill: none; stroke: #b0b0b0; stroke-width: 0.8; stroke-linecap: square"/>
     </g>
     <g id="text_46">
      <!-- -30° -->
      <g transform="translate(107.029687 59.45735) scale(0.1 -0.1)">
       <use xlink:href="#DejaVuSans-2d"/>
       <use xlink:href="#DejaVuSans-33" transform="translate(36.083984 0)"/>
       <use xlink:href="#DejaVuSans-30" transform="translate(99.707031 0)"/>
       <use xlink:href="#DejaVuSans-b0" transform="translate(163.330078 0)"/>
      </g>
     </g>
    </g>
    <g id="xtick_25">
     <g id="line2d_50">
      <path d="M 173.296094 153 
L 173.296094 55.8 
" clip-path="url(#p5c1c02d4a6)" style="fill: none; stroke: #b0b0b0; stroke-width: 0.8; stroke-linecap: square"/>
     </g>
     <g id="text_47">
      <!-- 0° -->
      <g transform="translate(167.614844 44.559375) scale(0.1 -0.1)">
       <use xlink:href="#DejaVuSans-30"/>
       <use xlink:href="#DejaVuSans-b0" transform="translate(63.623047 0)"/>
      </g>
     </g>
    </g>
    <g id="xtick_26">
     <g id="line2d_51">
      <path d="M 173.296094 153 
L 221.896094 68.822331 
" clip-path="url(#p5c1c02d4a6)" style="fill: none; stroke: #b0b0b0; stroke-width: 0.8; stroke-linecap: square"/>
     </g>
     <g id="text_48">
      <!-- 30° -->
      <g transform="translate(220.033594 59.45735) scale(0.1 -0.1)">
       <use xlink:href="#DejaVuSans-33"/>
       <use xlink:href="#DejaVuSans-30" transform="translate(63.623047 0)"/>
       <use xlink:href="#DejaVuSans-b0" transform="translate(127.246094 0)"/>
      </g>
     </g>
    </g>
    <g id="xtick_27">
     <g id="line2d_52">
      <path d="M 173.296094 153 
L 257.473763 104.4 
" clip-path="url(#p5c1c02d4a6)" style="fill: none; stroke: #b0b0b0; stroke-width: 0.8; stroke-linecap: square"/>
     </g>
     <g id="text_49">
      <!-- 60° -->
      <g transform="translate(260.735619 100.159375) scale(0.1 -0.1)">
       <use xlink:href="#DejaVuSans-36"/>
       <use xlink:href="#DejaVuSans-30" transform="translate(63.623047 0)"/>
       <use xlink:href="#DejaVuSans-b0" transform="translate(127.246094 0)"/>
      </g>
     </g>
    </g>
    <g id="xtick_28">
     <g id="line2d_53">
      <path d="M 173.296094 153 
L 270.496094 153 
" clip-path="url(#p5c1c02d4a6)" style="fill: none; stroke: #b0b0b0; stroke-width: 0.8; stroke-linecap: square"/>
     </g>
     <g id="text_50">
      <!-- 90° -->
      <g transform="translate(275.633594 155.759375) scale(0.1 -0.1)">
       <use xlink:href="#DejaVuSans-39"/>
       <use xlink:href="#DejaVuSans-30" transform="translate(63.623047 0)"/>
       <use xlink:href="#DejaVuSans-b0" transform="translate(127.246094 0)"/>
      </g>
     </g>
    </g>
   </g>
   <g id="matplotlib.axis_8">
    <g id="ytick_20">
     <g id="line2d_54">
      <path d="M 167.940477 153 
C 167.940477 151.580147 168.505113 150.216995 169.509101 149.213007 
C 170.513089 148.209019 171.876241 147.644383 173.296094 147.644383 
C 174.715947 147.644383 176.079099 148.209019 177.083087 149.213007 
C 178.087074 150.216995 178.65171 151.580147 178.65171 153 
" clip-path="url(#p5c1c02d4a6)" style="fill: none; stroke: #b0b0b0; stroke-width: 0.8; stroke-linecap: square"/>
     </g>
     <g id="text_51">
      <!-- −50 -->
      <g transform="translate(157.388133 167.598437) scale(0.1 -0.1)">
       <use xlink:href="#DejaVuSans-2212"/>
       <use xlink:href="#DejaVuSans-35" transform="translate(83.789062 0)"/>
       <use xlink:href="#DejaVuSans-30" transform="translate(147.412109 0)"/>
      </g>
     </g>
    </g>
    <g id="ytick_21">
     <g id="line2d_55">
      <path d="M 150.831631 153 
C 150.831631 147.044339 153.200032 141.326515 157.41132 137.115226 
C 161.622608 132.903938 167.340433 130.535538 173.296094 130.535538 
C 179.251755 130.535538 184.969579 132.903938 189.180867 137.115226 
C 193.392156 141.326515 195.760556 147.044339 195.760556 153 
" clip-path="url(#p5c1c02d4a6)" style="fill: none; stroke: #b0b0b0; stroke-width: 0.8; stroke-linecap: square"/>
     </g>
     <g id="text_52">
      <!-- −40 -->
      <g transform="translate(140.279288 167.598437) scale(0.1 -0.1)">
       <use xlink:href="#DejaVuSans-2212"/>
       <use xlink:href="#DejaVuSans-34" transform="translate(83.789062 0)"/>
       <use xlink:href="#DejaVuSans-30" transform="translate(147.412109 0)"/>
      </g>
     </g>
    </g>
    <g id="ytick_22">
     <g id="line2d_56">
      <path d="M 133.722786 153 
C 133.722786 142.508531 137.894951 132.436034 145.313539 125.017446 
C 152.732128 117.598857 162.804625 113.426692 173.296094 113.426692 
C 183.787562 113.426692 193.86006 117.598857 201.278648 125.017446 
C 208.697237 132.436034 212.869402 142.508531 212.869402 153 
" clip-path="url(#p5c1c02d4a6)" style="fill: none; stroke: #b0b0b0; stroke-width: 0.8; stroke-linecap: square"/>
     </g>
     <g id="text_53">
      <!-- −30 -->
      <g transform="translate(123.170442 167.598437) scale(0.1 -0.1)">
       <use xlink:href="#DejaVuSans-2212"/>
       <use xlink:href="#DejaVuSans-33" transform="translate(83.789062 0)"/>
       <use xlink:href="#DejaVuSans-30" transform="translate(147.412109 0)"/>
      </g>
     </g>
    </g>
    <g id="ytick_23">
     <g id="line2d_57">
      <path d="M 116.61394 153 
C 116.61394 137.972724 122.589869 123.545554 133.215758 112.919665 
C 143.841647 102.293776 158.268817 96.317846 173.296094 96.317846 
C 188.32337 96.317846 202.75054 102.293776 213.376429 112.919665 
C 224.002318 123.545554 229.978247 137.972724 229.978247 153 
" clip-path="url(#p5c1c02d4a6)" style="fill: none; stroke: #b0b0b0; stroke-width: 0.8; stroke-linecap: square"/>
     </g>
     <g id="text_54">
      <!-- −20 -->
      <g transform="translate(106.061596 167.598437) scale(0.1 -0.1)">
       <use xlink:href="#DejaVuSans-2212"/>
       <use xlink:href="#DejaVuSans-32" transform="translate(83.789062 0)"/>
       <use xlink:href="#DejaVuSans-30" transform="translate(147.412109 0)"/>
      </g>
     </g>
    </g>
    <g id="ytick_24">
     <g id="line2d_58">
      <path d="M 99.505094 153 
C 99.505094 133.436916 107.284788 114.655073 121.117978 100.821884 
C 134.951167 86.988694 153.73301 79.209001 173.296094 79.209001 
C 192.859178 79.209001 211.64102 86.988694 225.47421 100.821884 
C 239.307399 114.655073 247.087093 133.436916 247.087093 153 
" clip-path="url(#p5c1c02d4a6)" style="fill: none; stroke: #b0b0b0; stroke-width: 0.8; stroke-linecap: square"/>
     </g>
     <g id="text_55">
      <!-- −10 -->
      <g transform="translate(88.952751 167.598437) scale(0.1 -0.1)">
       <use xlink:href="#DejaVuSans-2212"/>
       <use xlink:href="#DejaVuSans-31" transform="translate(83.789062 0)"/>
       <use xlink:href="#DejaVuSans-30" transform="translate(147.412109 0)"/>
      </g>
     </g>
    </g>
    <g id="ytick_25">
     <g id="line2d_59">
      <path d="M 82.396249 153 
C 82.396249 128.901108 91.979707 105.764593 109.020197 88.724103 
C 126.060687 71.683613 149.197202 62.100155 173.296094 62.100155 
C 197.394986 62.100155 220.531501 71.683613 237.571991 88.724103 
C 254.612481 105.764593 264.195939 128.901108 264.195939 153 
" clip-path="url(#p5c1c02d4a6)" style="fill: none; stroke: #b0b0b0; stroke-width: 0.8; stroke-linecap: square"/>
     </g>
     <g id="text_56">
      <!-- 0 -->
      <g transform="translate(79.214999 167.598437) scale(0.1 -0.1)">
       <use xlink:href="#DejaVuSans-30"/>
      </g>
     </g>
    </g>
    <g id="text_57">
     <!-- MUSIC -->
     <g transform="translate(9.982031 102.320312) scale(0.1 -0.1)">
      <defs>
       <path id="DejaVuSans-55" d="M 556 4666 
L 1191 4666 
L 1191 1831 
Q 1191 1081 1462 751 
Q 1734 422 2344 422 
Q 2950 422 3222 751 
Q 3494 1081 3494 1831 
L 3494 4666 
L 4128 4666 
L 4128 1753 
Q 4128 841 3676 375 
Q 3225 -91 2344 -91 
Q 1459 -91 1007 375 
Q 556 841 556 1753 
L 556 4666 
z
" transform="scale(0.015625)"/>
       <path id="DejaVuSans-53" d="M 3425 4513 
L 3425 3897 
Q 3066 4069 2747 4153 
Q 2428 4238 2131 4238 
Q 1616 4238 1336 4038 
Q 1056 3838 1056 3469 
Q 1056 3159 1242 3001 
Q 1428 2844 1947 2747 
L 2328 2669 
Q 3034 2534 3370 2195 
Q 3706 1856 3706 1288 
Q 3706 609 3251 259 
Q 2797 -91 1919 -91 
Q 1588 -91 1214 -16 
Q 841 59 441 206 
L 441 856 
Q 825 641 1194 531 
Q 1563 422 1919 422 
Q 2459 422 2753 634 
Q 3047 847 3047 1241 
Q 3047 1584 2836 1778 
Q 2625 1972 2144 2069 
L 1759 2144 
Q 1053 2284 737 2584 
Q 422 2884 422 3419 
Q 422 4038 858 4394 
Q 1294 4750 2059 4750 
Q 2388 4750 2728 4690 
Q 3069 4631 3425 4513 
z
" transform="scale(0.015625)"/>
       <path id="DejaVuSans-49" d="M 628 4666 
L 1259 4666 
L 1259 0 
L 628 0 
L 628 4666 
z
" transform="scale(0.015625)"/>
      </defs>
      <use xlink:href="#DejaVuSans-4d"/>
      <use xlink:href="#DejaVuSans-55" transform="translate(86.279297 0)"/>
      <use xlink:href="#DejaVuSans-53" transform="translate(159.472656 0)"/>
      <use xlink:href="#DejaVuSans-49" transform="translate(222.949219 0)"/>
      <use xlink:href="#DejaVuSans-43" transform="translate(252.441406 0)"/>
     </g>
    </g>
   </g>
   <g id="line2d_60">
    <path d="M 173.296094 143.990355 
L 174.088087 140.424249 
L 175.163959 136.571509 
L 176.584526 132.258766 
L 178.6524 126.746876 
L 181.187188 120.613937 
L 184.862178 112.277893 
L 196.098563 87.147049 
L 201.870433 73.71778 
L 203.073413 71.981144 
L 200.3059 82.271647 
L 199.554075 85.516981 
L 199.173366 87.713463 
L 199.065868 89.159776 
L 199.181158 90.018309 
L 199.497323 90.372245 
L 200.014221 90.248159 
L 200.750662 89.627329 
L 201.74902 88.439098 
L 203.081547 86.551184 
L 204.864711 83.743422 
L 207.185446 79.874253 
L 209.292114 76.591898 
L 208.521711 79.430973 
L 198.462658 105.161665 
L 189.936122 127.525938 
L 187.310864 133.735815 
L 184.973585 138.722362 
L 182.89707 142.661927 
L 180.822619 146.119521 
L 178.665855 149.258896 
L 177.567619 150.962999 
L 177.474781 151.471637 
L 177.633344 151.95042 
L 177.965543 152.860459 
L 177.911644 153.41478 
L 177.567304 154.191385 
L 177.476088 154.694947 
L 177.635999 155.188134 
L 178.249944 156.158689 
L 181.46933 160.907717 
L 183.372848 164.198449 
L 185.328297 167.997852 
L 187.457231 172.59461 
L 190.124309 178.93996 
L 193.223238 186.896576 
L 204.92825 217.49481 
L 207.31541 223.479774 
L 209.338144 228.885904 
L 208.411369 228.150642 
L 203.908164 220.721549 
L 202.367066 218.405151 
L 201.213449 216.889348 
L 200.353346 215.997943 
L 199.730239 215.630577 
L 199.314324 215.743792 
L 199.097399 216.343713 
L 199.089439 217.482082 
L 199.324815 219.27632 
L 199.875269 221.949322 
L 200.86683 225.884111 
L 202.391123 231.400155 
L 203.000595 234.612448 
L 200.281676 228.618727 
L 193.122263 212.053527 
L 178.832318 179.705925 
L 176.707884 174.090244 
L 175.081651 169.157074 
L 173.936071 164.959614 
L 173.165548 161.301817 
L 172.372067 157.320475 
L 172.175726 157.41655 
L 171.715941 158.018483 
L 168.719564 162.331088 
L 166.115874 165.573102 
L 162.420539 169.764193 
L 156.006066 176.609803 
L 144.495364 188.899418 
L 135.613367 198.77876 
L 123.581256 212.627647 
L 127.32046 207.443006 
L 140.526205 190.829393 
L 148.767873 179.916175 
L 163.513917 160.046247 
L 166.708881 156.321203 
L 168.213625 154.452187 
L 168.539307 153.700587 
L 168.618707 152.919092 
L 168.486832 152.120774 
L 168.146339 151.440602 
L 167.319329 150.377168 
L 161.676211 143.647744 
L 157.758324 138.432952 
L 142.102684 117.21848 
L 132.7498 105.291432 
L 114.8668 83.366679 
L 138.644975 110.633355 
L 148.22162 121.133966 
L 165.951537 140.232534 
L 168.821517 143.803748 
L 170.914278 146.762934 
L 172.298564 148.669905 
L 172.45936 148.618179 
L 172.600168 148.222769 
L 172.912742 146.234866 
L 173.296094 143.990355 
L 173.296094 143.990355 
" clip-path="url(#p5c1c02d4a6)" style="fill: none; stroke: #1f77b4; stroke-opacity: 0.75; stroke-width: 1.5; stroke-linecap: square"/>
   </g>
   <g id="line2d_61">
    <g clip-path="url(#p5c1c02d4a6)">
     <use xlink:href="#m55b0ddb93a" x="205.029345" y="65.81361" style="fill: #ff0000; stroke: #ff0000"/>
     <use xlink:href="#m55b0ddb93a" x="212.507384" y="68.911116" style="fill: #ff0000; stroke: #ff0000"/>
     <use xlink:href="#m55b0ddb93a" x="113.657091" y="81.925004" style="fill: #ff0000; stroke: #ff0000"/>
    </g>
   </g>
   <g id="patch_15">
    <path d="M 270.496094 153 
C 270.496094 127.230844 260.248418 102.490766 242.026873 84.269221 
C 223.805328 66.047676 199.06525 55.8 173.296094 55.8 
C 147.526938 55.8 122.78686 66.047676 104.565315 84.269221 
C 86.34377 102.490766 76.096094 127.230844 76.096094 153 
" style="fill: none; stroke: #000000; stroke-width: 0.8; stroke-linejoin: miter; stroke-linecap: square"/>
   </g>
   <g id="patch_16">
    <path d="M 173.296094 153 
L 76.096094 153 
" style="fill: none; stroke: #000000; stroke-width: 0.8; stroke-linejoin: miter; stroke-linecap: square"/>
   </g>
   <g id="patch_17">
    <path d="M 173.296094 153 
L 270.496094 153 
" style="fill: none; stroke: #000000; stroke-width: 0.8; stroke-linejoin: miter; stroke-linecap: square"/>
   </g>
  </g>
 </g>
 <defs>
  <clipPath id="pbee6a50348">
   <path d="M 270.496094 580.68 
C 270.496094 554.910844 260.248418 530.170766 242.026873 511.949221 
C 223.805328 493.727676 199.06525 483.48 173.296094 483.48 
C 147.526938 483.48 122.78686 493.727676 104.565315 511.949221 
C 86.34377 530.170766 76.096094 554.910844 76.096094 580.68 
L 173.296094 580.68 
C 173.296094 580.68 173.296094 580.68 173.296094 580.68 
C 173.296094 580.68 173.296094 580.68 173.296094 580.68 
C 173.296094 580.68 173.296094 580.68 173.296094 580.68 
C 173.296094 580.68 173.296094 580.68 173.296094 580.68 
z
"/>
  </clipPath>
  <clipPath id="pd6a79263e5">
   <path d="M 270.496094 438.12 
C 270.496094 412.350844 260.248418 387.610766 242.026873 369.389221 
C 223.805328 351.167676 199.06525 340.92 173.296094 340.92 
C 147.526938 340.92 122.78686 351.167676 104.565315 369.389221 
C 86.34377 387.610766 76.096094 412.350844 76.096094 438.12 
L 173.296094 438.12 
C 173.296094 438.12 173.296094 438.12 173.296094 438.12 
C 173.296094 438.12 173.296094 438.12 173.296094 438.12 
C 173.296094 438.12 173.296094 438.12 173.296094 438.12 
C 173.296094 438.12 173.296094 438.12 173.296094 438.12 
z
"/>
  </clipPath>
  <clipPath id="p90c67be63d">
   <path d="M 270.496094 295.56 
C 270.496094 269.790844 260.248418 245.050766 242.026873 226.829221 
C 223.805328 208.607676 199.06525 198.36 173.296094 198.36 
C 147.526938 198.36 122.78686 208.607676 104.565315 226.829221 
C 86.34377 245.050766 76.096094 269.790844 76.096094 295.56 
L 173.296094 295.56 
C 173.296094 295.56 173.296094 295.56 173.296094 295.56 
C 173.296094 295.56 173.296094 295.56 173.296094 295.56 
C 173.296094 295.56 173.296094 295.56 173.296094 295.56 
C 173.296094 295.56 173.296094 295.56 173.296094 295.56 
z
"/>
  </clipPath>
  <clipPath id="p5c1c02d4a6">
   <path d="M 270.496094 153 
C 270.496094 127.230844 260.248418 102.490766 242.026873 84.269221 
C 223.805328 66.047676 199.06525 55.8 173.296094 55.8 
C 147.526938 55.8 122.78686 66.047676 104.565315 84.269221 
C 86.34377 102.490766 76.096094 127.230844 76.096094 153 
L 173.296094 153 
C 173.296094 153 173.296094 153 173.296094 153 
C 173.296094 153 173.296094 153 173.296094 153 
C 173.296094 153 173.296094 153 173.296094 153 
C 173.296094 153 173.296094 153 173.296094 153 
z
"/>
  </clipPath>
 </defs>
</svg>
